<?xml version="1.0" standalone="no"?>
<!DOCTYPE svg PUBLIC "-//W3C//DTD SVG 20010904//EN"
 "http://www.w3.org/TR/2001/REC-SVG-20010904/DTD/svg10.dtd">
<svg version="1.0" xmlns="http://www.w3.org/2000/svg"
 width="1280.000000pt" height="792.000000pt" viewBox="0 0 1280.000000 792.000000"
 preserveAspectRatio="xMidYMid meet">
<metadata>
Created by potrace 1.15, written by Peter Selinger 2001-2017
</metadata>
<g transform="translate(0.000000,792.000000) scale(0.100000,-0.100000)"
fill="#000000" stroke="none">
<path d="M9465 7310 l-30 -20 43 0 c35 0 43 3 40 17 -5 24 -19 25 -53 3z"/>
<path d="M6213 7142 c-21 -13 -33 -61 -33 -127 0 -52 -8 -84 -40 -164 -68
-171 -139 -322 -175 -371 -19 -26 -35 -55 -35 -63 0 -42 51 -117 79 -117 9 0
23 10 31 23 29 44 80 129 80 133 0 2 20 36 44 76 24 40 54 99 66 131 13 31 27
57 31 57 10 0 27 -50 34 -104 6 -47 7 -398 1 -446 -5 -36 -15 -219 -22 -405
-4 -88 -10 -168 -15 -177 -16 -30 1 -63 46 -92 53 -33 80 -28 94 17 16 53 32
958 19 1097 l-7 75 38 -80 c21 -44 56 -104 78 -133 22 -29 46 -71 54 -94 9
-29 21 -44 43 -53 47 -20 83 5 107 73 11 32 10 34 -70 118 -95 101 -101 111
-175 314 -63 175 -110 253 -171 287 -49 26 -86 36 -102 25z m131 -258 c8 -21
1 -28 -18 -21 -9 4 -13 13 -10 22 8 20 20 19 28 -1z"/>
<path d="M3896 6951 c-9 -15 2 -50 25 -80 l19 -24 -44 -43 -44 -42 3 -344 c2
-189 4 -348 4 -355 1 -7 15 -28 32 -48 37 -42 80 -48 103 -12 24 36 98 361
108 472 3 27 13 15 94 -110 50 -77 124 -198 164 -270 41 -71 118 -205 172
-298 111 -191 140 -246 193 -372 44 -104 58 -123 104 -142 30 -13 35 -12 52 3
11 9 19 30 19 47 0 55 -171 384 -293 562 -22 33 -72 116 -111 185 -78 140
-166 284 -262 430 -35 53 -64 99 -64 102 0 11 89 -11 170 -41 47 -18 105 -39
130 -47 25 -8 62 -24 83 -35 37 -20 39 -20 59 -3 16 15 19 26 14 57 -10 62
-30 83 -97 102 -126 35 -276 88 -319 113 -25 14 -82 64 -127 110 -78 80 -86
85 -132 90 -30 3 -51 0 -55 -7z"/>
<path d="M9050 6811 c-8 -5 -70 -27 -136 -50 -67 -22 -171 -62 -230 -89 -60
-27 -145 -64 -189 -83 -44 -18 -86 -37 -92 -42 -18 -13 -16 -63 3 -114 13 -33
22 -43 39 -43 12 0 105 40 206 89 101 49 216 100 254 114 39 14 78 28 88 32
17 7 18 4 11 -31 -9 -52 -14 -56 -51 -37 -38 18 -60 12 -72 -20 -5 -12 -26
-37 -47 -55 -20 -18 -71 -65 -113 -105 -42 -40 -112 -104 -156 -142 -67 -58
-232 -207 -310 -280 -11 -11 -39 -36 -61 -55 -22 -19 -100 -91 -174 -160 -74
-69 -202 -186 -285 -260 -271 -245 -257 -229 -245 -272 15 -54 51 -92 77 -84
11 4 58 46 104 94 97 101 461 441 917 854 280 254 319 287 341 281 15 -3 27
-7 28 -8 2 0 -7 -62 -18 -136 -28 -180 -17 -308 29 -361 20 -24 43 -23 76 3
29 23 33 54 11 83 -19 25 -19 101 0 236 22 153 72 415 96 493 19 65 19 69 2
98 -10 16 -31 37 -47 44 -34 17 -36 17 -56 6z"/>
<path d="M5335 5209 c-122 -29 -326 -115 -433 -183 -139 -89 -306 -250 -355
-344 -38 -73 -67 -160 -67 -203 0 -15 9 -58 21 -95 27 -90 87 -151 173 -178
65 -21 134 -19 346 10 195 27 298 4 389 -87 114 -114 114 -252 1 -368 -56 -57
-163 -112 -279 -143 -103 -27 -308 -29 -400 -4 -78 21 -156 59 -194 94 -30 28
-29 46 4 94 11 14 19 34 19 43 0 21 -31 75 -43 75 -19 0 -96 -64 -107 -89 -27
-67 17 -163 111 -241 102 -85 174 -112 344 -131 115 -12 215 -7 325 16 200 43
310 118 386 265 26 49 29 65 29 150 0 91 -2 99 -41 182 -65 134 -188 251 -300
284 -67 19 -223 19 -354 0 -52 -8 -133 -13 -180 -12 -95 1 -134 17 -142 59 -7
36 18 121 55 191 41 77 186 225 286 291 190 125 433 208 561 191 89 -12 157
-53 132 -78 -19 -19 -14 -67 9 -105 19 -31 25 -34 53 -29 74 14 83 85 23 185
-84 140 -215 196 -372 160z"/>
<path d="M6460 5125 c-58 -6 -133 -15 -168 -19 -34 -4 -86 -11 -115 -17 -29
-6 -115 -13 -192 -14 l-140 -4 -3 -51 c-2 -31 4 -75 15 -109 29 -89 25 -403
-9 -691 -30 -252 -38 -366 -39 -553 -1 -108 2 -132 18 -160 20 -33 57 -47 76
-28 6 6 20 11 32 11 12 0 84 15 161 34 195 47 258 57 392 57 119 1 157 -4 200
-27 44 -23 92 19 92 80 0 32 -69 85 -122 94 -24 4 -115 6 -203 5 -134 -1 -180
-6 -285 -29 -69 -15 -150 -33 -180 -39 -30 -7 -59 -10 -64 -7 -12 7 0 320 19
462 8 63 15 117 15 119 0 2 8 -7 19 -20 l18 -23 189 27 c104 15 228 27 275 27
90 0 108 7 126 50 14 34 2 62 -42 95 -35 27 -38 28 -130 21 -52 -3 -152 -15
-222 -26 -71 -11 -146 -20 -168 -20 l-40 0 0 265 0 265 40 5 c285 36 472 55
523 54 67 -2 84 7 108 53 13 25 13 32 -1 56 -14 23 -78 75 -87 71 -2 -1 -50
-7 -108 -14z"/>
<path d="M7186 4939 c-45 -13 -95 -67 -132 -144 -19 -38 -34 -75 -34 -82 0 -9
-8 -11 -25 -7 -23 6 -28 1 -59 -67 -29 -65 -51 -141 -70 -244 -20 -103 -46
-366 -46 -455 0 -196 58 -337 174 -424 159 -120 354 -37 480 204 115 220 163
582 111 832 -27 128 -62 196 -139 274 -101 101 -182 136 -260 113z m150 -165
c55 -26 118 -104 141 -176 29 -89 38 -216 23 -340 -16 -131 -69 -325 -115
-422 -107 -226 -323 -288 -409 -118 -42 83 -50 149 -36 311 12 150 36 329 50
365 7 20 7 20 15 -4 7 -23 31 -49 46 -50 6 0 21 55 24 90 9 99 40 222 70 281
38 73 116 98 191 63z"/>
<path d="M10151 4678 c-5 -18 -12 -52 -15 -74 l-5 -42 102 -1 c281 -4 622 -71
644 -127 11 -29 -110 -156 -197 -205 -33 -19 -92 -55 -130 -82 -62 -43 -70
-52 -84 -99 -10 -36 -12 -57 -5 -70 13 -24 36 -18 106 28 29 19 55 34 59 34 3
0 38 21 77 46 84 53 214 178 259 247 26 41 30 55 26 96 -7 75 -41 135 -91 160
-93 47 -417 106 -648 118 l-87 5 -11 -34z"/>
<path d="M2174 4618 c-43 -39 -110 -99 -147 -134 -38 -34 -75 -65 -82 -68 -7
-2 -25 -22 -41 -43 -15 -21 -45 -61 -66 -89 -54 -72 -105 -175 -104 -209 1
-32 29 -52 111 -78 28 -8 109 -34 180 -57 157 -49 284 -98 306 -117 9 -7 35
-15 58 -17 35 -3 45 0 57 19 15 23 14 47 -6 101 -9 27 -23 35 -103 66 -51 20
-164 59 -252 88 -215 70 -203 61 -163 116 40 56 40 56 73 44 14 -5 58 -15 96
-21 60 -9 73 -8 95 6 26 17 96 14 464 -20 466 -43 889 -54 1105 -31 81 9 125
9 136 3 20 -12 133 4 176 25 26 13 28 17 26 73 -3 60 -15 80 -43 69 -22 -8
-159 -30 -285 -45 -173 -21 -513 -16 -825 12 -63 6 -145 12 -182 14 -37 3 -95
9 -130 14 -35 6 -103 13 -153 16 -49 3 -119 7 -155 9 -116 8 -200 19 -206 27
-2 4 38 42 91 84 61 49 95 83 95 95 0 34 -24 109 -36 114 -6 2 -47 -27 -90
-66z"/>
<path d="M10429 4485 c-3 -2 -131 -7 -285 -10 -642 -12 -1101 -31 -1239 -50
-16 -3 -95 -7 -175 -10 -320 -11 -676 -41 -698 -58 -9 -7 -12 -29 -10 -66 l3
-56 50 0 c28 1 109 8 180 17 264 34 780 67 1290 83 263 8 823 7 837 -1 16 -10
59 -15 80 -8 9 2 23 16 32 29 15 22 14 28 -5 72 -22 53 -45 74 -60 58z"/>
<path d="M7567 3430 c-34 -10 -57 -28 -57 -45 0 -21 109 -161 134 -173 21 -9
153 -180 449 -582 109 -148 276 -354 485 -600 105 -124 224 -264 264 -312 98
-117 146 -138 201 -90 16 14 17 11 17 -46 0 -51 -3 -62 -16 -62 -17 0 -146 74
-246 142 -66 44 -101 48 -149 15 -48 -32 -50 -65 -5 -105 20 -17 42 -29 50
-26 8 3 70 -28 137 -69 142 -86 208 -111 259 -102 58 11 78 30 96 92 38 130
-19 496 -81 519 -22 9 -95 -37 -102 -64 -3 -13 2 -40 10 -60 17 -40 37 -109
37 -130 0 -26 -49 20 -166 156 -65 75 -121 139 -124 142 -43 41 -402 473 -518
625 -51 66 -104 134 -118 150 -15 17 -71 90 -126 163 -55 73 -147 193 -206
266 -59 74 -120 151 -135 170 -29 37 -41 41 -90 26z"/>
<path d="M6012 3333 c-6 -10 -6 -29 -1 -47 17 -59 11 -129 -15 -166 -13 -19
-27 -50 -30 -67 -7 -29 -3 -37 25 -63 19 -16 38 -30 43 -30 6 0 6 -174 1 -457
-11 -693 -12 -856 -4 -1123 5 -161 4 -247 -3 -251 -13 -9 11 -159 30 -181 8
-10 30 -22 48 -28 19 -7 34 -16 34 -21 0 -20 -34 -129 -40 -129 -3 0 -21 37
-40 82 -41 102 -89 184 -128 221 -52 50 -212 59 -212 12 0 -18 35 -55 52 -55
7 0 29 -12 49 -26 42 -29 101 -132 145 -255 58 -163 86 -199 153 -199 57 0 87
62 161 335 22 83 55 191 72 241 36 103 33 139 -9 155 -15 5 -38 9 -52 7 -24
-3 -30 -15 -68 -123 -23 -66 -42 -118 -43 -115 -1 3 -8 106 -16 230 -14 229
-13 1095 2 1456 6 143 -9 518 -22 566 -5 17 -71 48 -104 48 -10 0 -23 -7 -28
-17z"/>
<path d="M4858 3253 c-99 -163 -178 -289 -246 -393 -87 -133 -232 -368 -282
-455 -112 -198 -270 -519 -270 -547 0 -14 9 -37 20 -51 l21 -26 -32 -16 -31
-17 5 44 c3 23 11 106 18 184 15 168 10 188 -56 223 -67 36 -78 26 -70 -62 4
-46 1 -115 -9 -192 -24 -179 -22 -242 10 -290 34 -52 52 -65 85 -65 89 0 325
167 461 327 94 110 111 177 59 227 -16 16 -34 25 -40 21 -6 -3 -27 -32 -47
-63 -34 -54 -207 -232 -225 -232 -14 0 33 115 113 275 110 221 148 286 421
718 34 54 101 151 149 215 51 68 88 127 88 140 0 26 -65 92 -91 92 -9 0 -32
-26 -51 -57z"/>
</g>
</svg>
