<?xml version="1.0" standalone="no"?>
<!DOCTYPE svg PUBLIC "-//W3C//DTD SVG 20010904//EN"
 "http://www.w3.org/TR/2001/REC-SVG-20010904/DTD/svg10.dtd">
<svg version="1.0" xmlns="http://www.w3.org/2000/svg"
 width="1280.000000pt" height="670.000000pt" viewBox="0 0 1280.000000 670.000000"
 preserveAspectRatio="xMidYMid meet">
<metadata>
Created by potrace 1.15, written by Peter Selinger 2001-2017
</metadata>
<g transform="translate(0.000000,670.000000) scale(0.100000,-0.100000)"
fill="#000000" stroke="none">
<path d="M6450 6539 c-466 -38 -943 -206 -1353 -476 -222 -147 -497 -397 -657
-598 -149 -188 -325 -493 -391 -680 -18 -49 -28 -65 -39 -61 -142 48 -192 58
-317 63 -84 4 -161 1 -210 -7 -231 -37 -455 -153 -615 -318 -147 -152 -224
-298 -268 -512 -20 -99 9 -90 -230 -71 -473 39 -1001 -81 -1380 -313 -384
-235 -660 -589 -737 -946 -25 -117 -25 -371 0 -490 70 -329 235 -588 522 -819
117 -94 232 -166 390 -242 302 -146 592 -214 965 -225 354 -11 698 47 1015
173 52 21 91 31 93 25 17 -52 122 -202 197 -281 286 -301 720 -483 1366 -572
140 -19 221 -22 899 -29 1160 -13 5081 -12 5241 1 480 38 854 193 1129 469
319 318 493 784 494 1320 1 204 -11 289 -64 451 -127 389 -436 734 -815 909
-231 108 -500 154 -735 127 l-65 -8 -19 53 c-171 492 -540 719 -1147 706
l-177 -3 -12 75 c-150 973 -916 1834 -1915 2153 -345 110 -778 157 -1165 126z"/>
</g>
</svg>
